<svg width="51" height="50" viewBox="0 0 51 50" fill="none" xmlns="http://www.w3.org/2000/svg">
<path d="M19.8333 12.5C19.8333 12.1316 19.9826 11.7783 20.2482 11.5179C20.5139 11.2574 20.8743 11.1111 21.25 11.1111H32.5833C32.959 11.1111 33.3194 11.2574 33.585 11.5179C33.8507 11.7783 34 12.1316 34 12.5C34 12.8683 33.8507 13.2216 33.585 13.4821C33.3194 13.7425 32.959 13.8889 32.5833 13.8889H21.25C20.8743 13.8889 20.5139 13.7425 20.2482 13.4821C19.9826 13.2216 19.8333 12.8683 19.8333 12.5ZM21.25 16.6666C20.8743 16.6666 20.5139 16.813 20.2482 17.0734C19.9826 17.3339 19.8333 17.6872 19.8333 18.0555C19.8333 18.4239 19.9826 18.7772 20.2482 19.0376C20.5139 19.2981 20.8743 19.4444 21.25 19.4444H32.5833C32.959 19.4444 33.3194 19.2981 33.585 19.0376C33.8507 18.7772 34 18.4239 34 18.0555C34 17.6872 33.8507 17.3339 33.585 17.0734C33.3194 16.813 32.959 16.6666 32.5833 16.6666H21.25ZM19.8333 30.5555C19.8333 30.1872 19.9826 29.8339 20.2482 29.5734C20.5139 29.313 20.8743 29.1666 21.25 29.1666H32.5833C32.959 29.1666 33.3194 29.313 33.585 29.5734C33.8507 29.8339 34 30.1872 34 30.5555C34 30.9239 33.8507 31.2772 33.585 31.5376C33.3194 31.7981 32.959 31.9444 32.5833 31.9444H21.25C20.8743 31.9444 20.5139 31.7981 20.2482 31.5376C19.9826 31.2772 19.8333 30.9239 19.8333 30.5555ZM21.25 34.7222C20.8743 34.7222 20.5139 34.8685 20.2482 35.129C19.9826 35.3895 19.8333 35.7427 19.8333 36.1111C19.8333 36.4794 19.9826 36.8327 20.2482 37.0932C20.5139 37.3536 20.8743 37.5 21.25 37.5H32.5833C32.959 37.5 33.3194 37.3536 33.585 37.0932C33.8507 36.8327 34 36.4794 34 36.1111C34 35.7427 33.8507 35.3895 33.585 35.129C33.3194 34.8685 32.959 34.7222 32.5833 34.7222H21.25Z" fill="#D01F42"/>
<path fill-rule="evenodd" clip-rule="evenodd" d="M5.66669 29.1667C5.66669 28.7983 5.81594 28.445 6.08162 28.1846C6.3473 27.9241 6.70763 27.7778 7.08335 27.7778H14.1667C14.5424 27.7778 14.9027 27.9241 15.1684 28.1846C15.4341 28.445 15.5834 28.7983 15.5834 29.1667V36.1111C15.5834 36.4795 15.4341 36.8327 15.1684 37.0932C14.9027 37.3537 14.5424 37.5 14.1667 37.5H7.08335C6.70763 37.5 6.3473 37.3537 6.08162 37.0932C5.81594 36.8327 5.66669 36.4795 5.66669 36.1111V29.1667ZM8.50002 30.5555V34.7222H12.75V30.5555H8.50002Z" fill="#D01F42"/>
<path d="M16.585 13.4819C16.843 13.22 16.9858 12.8692 16.9826 12.505C16.9794 12.1408 16.8304 11.7925 16.5677 11.535C16.3051 11.2775 15.9497 11.1314 15.5783 11.1282C15.2069 11.1251 14.849 11.2651 14.5818 11.5181L9.91673 16.0917L8.08498 14.2958C7.8178 14.0428 7.45995 13.9028 7.0885 13.906C6.71705 13.9092 6.36174 14.0552 6.09907 14.3127C5.83641 14.5703 5.68742 14.9186 5.6842 15.2828C5.68097 15.6469 5.82376 15.9978 6.08182 16.2597L9.91673 20.0194L16.585 13.4819Z" fill="#D01F42"/>
<path fill-rule="evenodd" clip-rule="evenodd" d="M5.66667 0C4.16377 0 2.72243 0.585316 1.65973 1.62718C0.597022 2.66905 0 4.08213 0 5.55556V44.4444C0 45.9179 0.597022 47.3309 1.65973 48.3728C2.72243 49.4147 4.16377 50 5.66667 50H34C35.5029 50 36.9442 49.4147 38.0069 48.3728C39.0696 47.3309 39.6667 45.9179 39.6667 44.4444V5.55556C39.6667 4.08213 39.0696 2.66905 38.0069 1.62718C36.9442 0.585316 35.5029 0 34 0H5.66667ZM2.83333 5.55556C2.83333 4.81884 3.13184 4.1123 3.6632 3.59137C4.19455 3.07044 4.91522 2.77778 5.66667 2.77778H34C34.7514 2.77778 35.4721 3.07044 36.0035 3.59137C36.5348 4.1123 36.8333 4.81884 36.8333 5.55556V44.4444C36.8333 45.1812 36.5348 45.8877 36.0035 46.4086C35.4721 46.9296 34.7514 47.2222 34 47.2222H5.66667C4.91522 47.2222 4.19455 46.9296 3.6632 46.4086C3.13184 45.8877 2.83333 45.1812 2.83333 44.4444V5.55556ZM42.5 13.8889C42.5 12.7838 42.9478 11.724 43.7448 10.9426C44.5418 10.1612 45.6228 9.72222 46.75 9.72222C47.8772 9.72222 48.9582 10.1612 49.7552 10.9426C50.5522 11.724 51 12.7838 51 13.8889V42.0875L46.75 48.3375L42.5 42.0875V13.8889ZM46.75 12.5C46.3743 12.5 46.0139 12.6463 45.7483 12.9068C45.4826 13.1673 45.3333 13.5205 45.3333 13.8889V16.6667H48.1667V13.8889C48.1667 13.5205 48.0174 13.1673 47.7517 12.9068C47.4861 12.6463 47.1257 12.5 46.75 12.5ZM46.75 43.3292L45.3333 41.2458V19.4444H48.1667V41.2458L46.75 43.3292Z" fill="#D01F42"/>
</svg>
