<svg width="58" height="56" viewBox="0 0 58 56" fill="none" xmlns="http://www.w3.org/2000/svg">
<path d="M30.2129 35.8593C40.0243 35.8387 46.6331 35.5775 50.4889 35.3586C53.0381 35.2135 55.0962 33.4346 55.3909 30.9374C55.7015 28.3144 55.9999 24.3721 55.9999 18.9302C55.9999 13.4884 55.7015 9.54605 55.3909 6.92186C55.0962 4.42586 53.0381 2.64698 50.4901 2.50186C46.4747 2.2733 39.4754 2 28.985 2C28.1434 2 27.3248 2.00161 26.5291 2.00484M14.8635 40.6977V54M6.88181 11.0698C6.88181 13.1545 7.72273 15.1538 9.21959 16.628C10.7164 18.1021 12.7466 18.9302 14.8635 18.9302C16.9804 18.9302 19.0106 18.1021 20.5074 16.628C22.0043 15.1538 22.8452 13.1545 22.8452 11.0698C22.8452 8.98504 22.0043 6.9857 20.5074 5.51158C19.0106 4.03746 16.9804 3.2093 14.8635 3.2093C12.7466 3.2093 10.7164 4.03746 9.21959 5.51158C7.72273 6.9857 6.88181 8.98504 6.88181 11.0698Z" stroke="#D01F42" stroke-width="3.3" stroke-linecap="round" stroke-linejoin="round"/>
<path d="M34.5587 19.3389C35.3262 19.3824 36.0224 19.7972 36.187 20.5361C36.3638 21.3294 36.4645 22.5617 36.144 24.2886C35.9684 25.233 35.1506 25.9114 34.1842 26.042L24.0732 27.3952L21.8629 50.759C21.7155 52.3117 20.5735 53.5924 19.0018 53.7701C17.6553 53.9227 16.3012 53.9994 14.9458 53.9999C13.3949 53.9999 11.9951 53.8983 10.8715 53.7762C9.22848 53.596 8.04719 52.2343 7.95755 50.6078L7.19867 36.9221C6.14211 36.8684 5.08669 36.7946 4.03301 36.7008C3.46136 36.6498 2.93158 36.3841 2.55346 35.9588C2.17534 35.5335 1.97787 34.9812 2.00197 34.4165C2.14564 29.8574 2.73015 25.6901 3.21642 22.9099C3.58235 20.8203 5.38007 19.3099 7.53145 19.2071C16.0756 18.7983 25.7543 18.8419 34.5587 19.3401V19.3389Z" stroke="#D01F42" stroke-width="3.3" stroke-linecap="round" stroke-linejoin="round"/>
</svg>
