<svg width="58" height="58" viewBox="0 0 58 58" fill="none" xmlns="http://www.w3.org/2000/svg">
<path d="M51.8438 49.1457C50.7392 49.1457 49.8438 48.2503 49.8438 47.1457V13.0832C49.8438 11.9787 48.9483 11.0832 47.8438 11.0832H41.875C40.7704 11.0832 39.875 10.1878 39.875 9.08323V4.96204C39.875 3.72164 38.7576 2.78037 37.5352 2.99112L11.6289 7.45769C10.6696 7.62309 9.96875 8.45516 9.96875 9.42861V47.1457C9.96875 48.2503 9.07332 49.1457 7.96875 49.1457H3.625C2.62398 49.1457 1.8125 49.9572 1.8125 50.9582C1.8125 51.9592 2.62398 52.7707 3.625 52.7707H11.6566L37.6017 56.3493C38.8036 56.5151 39.875 55.5813 39.875 54.3681V16.7082C39.875 15.6037 40.7704 14.7082 41.875 14.7082H44.2188C45.3233 14.7082 46.2188 15.6037 46.2188 16.7082V50.7707C46.2188 51.8753 47.1142 52.7707 48.2188 52.7707H54.375C55.376 52.7707 56.1875 51.9592 56.1875 50.9582C56.1875 49.9572 55.376 49.1457 54.375 49.1457H51.8438ZM36.25 50.2088C36.25 51.422 35.1786 52.3558 33.9767 52.1901L15.3205 49.6168C14.3309 49.4803 13.5938 48.6345 13.5938 47.6356V12.4823C13.5938 11.5088 14.2947 10.6767 15.254 10.5113L33.9102 7.29518C35.1326 7.08446 36.25 8.02572 36.25 9.26611V50.2088Z" fill="#D01F42"/>
<path d="M29 26.2812H32.625V33.5312H29V26.2812Z" fill="#D01F42"/>
</svg>
