<svg width="57" height="51" viewBox="0 0 57 51" fill="none" xmlns="http://www.w3.org/2000/svg">
<path d="M52.35 25.5026V15.0582C52.35 8.90117 52.35 5.82528 50.4102 3.91133C48.4677 2 45.346 2 39.1 2H31.15C24.9039 2 21.7796 2 19.8398 3.91133C17.9 5.82528 17.9 8.90117 17.9 15.0582V35.9471C17.9 42.1041 17.9 45.1826 19.8398 47.0965C21.4828 48.7154 23.9764 48.9608 28.5 49M28.5 12.4444H41.75M28.5 22.8889H41.75M7.3 2H4.65C3.94718 2 3.27314 2.2751 2.77617 2.76478C2.2792 3.25445 2 3.9186 2 4.61111V41.1667L5.975 49L9.95 41.1667V4.61111C9.95 3.9186 9.6708 3.25445 9.17383 2.76478C8.67686 2.2751 8.00282 2 7.3 2Z" stroke="#D01F42" stroke-width="3.2" stroke-linecap="round" stroke-linejoin="round"/>
<path d="M33.8 43.7778C33.8 43.7778 37.775 45.0833 40.425 49C40.425 49 44.4 38.5556 55 33.3333M2 12.4445H9.95" stroke="#D01F42" stroke-width="3.2" stroke-linecap="round" stroke-linejoin="round"/>
</svg>
