<svg width="16" height="16" viewBox="0 0 16 16" fill="none" xmlns="http://www.w3.org/2000/svg">
<path d="M3.75 1.5H12.25C12.8467 1.5 13.419 1.73705 13.841 2.15901C14.2629 2.58097 14.5 3.15326 14.5 3.75V7.293C14.1689 7.22558 13.8267 7.23533 13.5 7.3215V5.5H2.5V12.25C2.5 12.5815 2.6317 12.8995 2.86612 13.1339C3.10054 13.3683 3.41848 13.5 3.75 13.5H7.598L7.339 14.5H3.75C3.15326 14.5 2.58097 14.2629 2.15901 13.841C1.73705 13.419 1.5 12.8467 1.5 12.25V3.75C1.5 3.15326 1.73705 2.58097 2.15901 2.15901C2.58097 1.73705 3.15326 1.5 3.75 1.5ZM2.5 3.75V4.5H13.5V3.75C13.5 3.41848 13.3683 3.10054 13.1339 2.86612C12.8995 2.6317 12.5815 2.5 12.25 2.5H3.75C3.41848 2.5 3.10054 2.6317 2.86612 2.86612C2.6317 3.10054 2.5 3.41848 2.5 3.75ZM10.7675 14.7335L15.0725 10.462C15.3389 10.1978 15.4917 9.84009 15.4983 9.46496C15.5049 9.08984 15.3649 8.72693 15.108 8.4535C14.9756 8.31252 14.8162 8.19964 14.6392 8.12162C14.4623 8.04359 14.2714 8.002 14.0781 7.99934C13.8847 7.99668 13.6927 8.033 13.5137 8.10613C13.3347 8.17927 13.1722 8.28771 13.036 8.425L8.7525 12.745C8.587 12.912 8.4685 13.12 8.4095 13.3475L8.0145 14.8735C7.99272 14.9577 7.99327 15.0461 8.01611 15.13C8.03895 15.2139 8.08328 15.2905 8.14472 15.352C8.20616 15.4135 8.2826 15.458 8.36648 15.481C8.45035 15.5039 8.53877 15.5046 8.623 15.483L10.133 15.094C10.3727 15.032 10.5916 14.9076 10.7675 14.7335ZM6 8.25C6 8.44891 5.92098 8.63968 5.78033 8.78033C5.63968 8.92098 5.44891 9 5.25 9C5.05109 9 4.86032 8.92098 4.71967 8.78033C4.57902 8.63968 4.5 8.44891 4.5 8.25C4.5 8.05109 4.57902 7.86032 4.71967 7.71967C4.86032 7.57902 5.05109 7.5 5.25 7.5C5.44891 7.5 5.63968 7.57902 5.78033 7.71967C5.92098 7.86032 6 8.05109 6 8.25ZM5.25 11.5C5.44891 11.5 5.63968 11.421 5.78033 11.2803C5.92098 11.1397 6 10.9489 6 10.75C6 10.5511 5.92098 10.3603 5.78033 10.2197C5.63968 10.079 5.44891 10 5.25 10C5.05109 10 4.86032 10.079 4.71967 10.2197C4.57902 10.3603 4.5 10.5511 4.5 10.75C4.5 10.9489 4.57902 11.1397 4.71967 11.2803C4.86032 11.421 5.05109 11.5 5.25 11.5ZM8 11.5C8.19891 11.5 8.38968 11.421 8.53033 11.2803C8.67098 11.1397 8.75 10.9489 8.75 10.75C8.75 10.5511 8.67098 10.3603 8.53033 10.2197C8.38968 10.079 8.19891 10 8 10C7.80109 10 7.61032 10.079 7.46967 10.2197C7.32902 10.3603 7.25 10.5511 7.25 10.75C7.25 10.9489 7.32902 11.1397 7.46967 11.2803C7.61032 11.421 7.80109 11.5 8 11.5ZM8 9C8.19891 9 8.38968 8.92098 8.53033 8.78033C8.67098 8.63968 8.75 8.44891 8.75 8.25C8.75 8.05109 8.67098 7.86032 8.53033 7.71967C8.38968 7.57902 8.19891 7.5 8 7.5C7.80109 7.5 7.61032 7.57902 7.46967 7.71967C7.32902 7.86032 7.25 8.05109 7.25 8.25C7.25 8.44891 7.32902 8.63968 7.46967 8.78033C7.61032 8.92098 7.80109 9 8 9ZM10.75 9C10.9489 9 11.1397 8.92098 11.2803 8.78033C11.421 8.63968 11.5 8.44891 11.5 8.25C11.5 8.05109 11.421 7.86032 11.2803 7.71967C11.1397 7.57902 10.9489 7.5 10.75 7.5C10.5511 7.5 10.3603 7.57902 10.2197 7.71967C10.079 7.86032 10 8.05109 10 8.25C10 8.44891 10.079 8.63968 10.2197 8.78033C10.3603 8.92098 10.5511 9 10.75 9Z" fill="#D01F42"/>
</svg>
