<svg width="14" height="14" viewBox="0 0 14 14" fill="none" xmlns="http://www.w3.org/2000/svg">
<path fill-rule="evenodd" clip-rule="evenodd" d="M3.9375 6.5625C3.24131 6.5625 2.57363 6.28594 2.08134 5.79366C1.58906 5.30137 1.3125 4.63369 1.3125 3.9375C1.3125 3.24131 1.58906 2.57363 2.08134 2.08134C2.57363 1.58906 3.24131 1.3125 3.9375 1.3125C4.63369 1.3125 5.30137 1.58906 5.79366 2.08134C6.28594 2.57363 6.5625 3.24131 6.5625 3.9375C6.5625 4.63369 6.28594 5.30137 5.79366 5.79366C5.30137 6.28594 4.63369 6.5625 3.9375 6.5625ZM5.25 3.9375C5.25 4.2856 5.11172 4.61944 4.86558 4.86558C4.61944 5.11172 4.2856 5.25 3.9375 5.25C3.5894 5.25 3.25556 5.11172 3.00942 4.86558C2.76328 4.61944 2.625 4.2856 2.625 3.9375C2.625 3.5894 2.76328 3.25556 3.00942 3.00942C3.25556 2.76328 3.5894 2.625 3.9375 2.625C4.2856 2.625 4.61944 2.76328 4.86558 3.00942C5.11172 3.25556 5.25 3.5894 5.25 3.9375ZM10.0625 12.6875C9.36631 12.6875 8.69863 12.4109 8.20634 11.9187C7.71406 11.4264 7.4375 10.7587 7.4375 10.0625C7.4375 9.36631 7.71406 8.69863 8.20634 8.20634C8.69863 7.71406 9.36631 7.4375 10.0625 7.4375C10.7587 7.4375 11.4264 7.71406 11.9187 8.20634C12.4109 8.69863 12.6875 9.36631 12.6875 10.0625C12.6875 10.7587 12.4109 11.4264 11.9187 11.9187C11.4264 12.4109 10.7587 12.6875 10.0625 12.6875ZM11.375 10.0625C11.375 10.4106 11.2367 10.7444 10.9906 10.9906C10.7444 11.2367 10.4106 11.375 10.0625 11.375C9.7144 11.375 9.38056 11.2367 9.13442 10.9906C8.88828 10.7444 8.75 10.4106 8.75 10.0625C8.75 9.7144 8.88828 9.38056 9.13442 9.13442C9.38056 8.88828 9.7144 8.75 10.0625 8.75C10.4106 8.75 10.7444 8.88828 10.9906 9.13442C11.2367 9.38056 11.375 9.7144 11.375 10.0625ZM12.0575 2.87C12.1734 2.7456 12.2365 2.58106 12.2335 2.41104C12.2305 2.24103 12.1617 2.07882 12.0414 1.95858C11.9212 1.83834 11.759 1.76947 11.589 1.76647C11.4189 1.76347 11.2544 1.82658 11.13 1.9425L1.9425 11.13C1.87802 11.1901 1.82631 11.2625 1.79044 11.343C1.75457 11.4235 1.73529 11.5104 1.73373 11.5985C1.73218 11.6867 1.74839 11.7742 1.78139 11.8559C1.8144 11.9376 1.86352 12.0118 1.92584 12.0742C1.98816 12.1365 2.06239 12.1856 2.1441 12.2186C2.22582 12.2516 2.31334 12.2678 2.40146 12.2663C2.48957 12.2647 2.57647 12.2454 2.65697 12.2096C2.73747 12.1737 2.80992 12.122 2.87 12.0575L12.0575 2.87Z" fill="black"/>
</svg>
