<svg width="81" height="81" viewBox="0 0 81 81" fill="none" xmlns="http://www.w3.org/2000/svg">
<path d="M40.5 78C61.2107 78 78 61.2107 78 40.5C78 19.7893 61.2107 3 40.5 3C19.7893 3 3 19.7893 3 40.5C3 61.2107 19.7893 78 40.5 78Z" fill="white" stroke="#D01F42" stroke-opacity="0.52" stroke-width="5" stroke-miterlimit="10"/>
<path d="M40.5 40C46.0234 40 50.5 35.2996 50.5 29.5C50.5 23.7004 46.0234 19 40.5 19C34.9766 19 30.5 23.7004 30.5 29.5C30.5 35.2996 34.9766 40 40.5 40ZM47.9844 42.6742L44.25 58.375L41.75 47.2188L44.25 42.625H36.75L39.25 47.2188L36.75 58.375L33.0156 42.6742C27.4453 42.9531 23 47.7355 23 53.65V57.0625C23 59.2363 24.6797 61 26.75 61H54.25C56.3203 61 58 59.2363 58 57.0625V53.65C58 47.7355 53.5547 42.9531 47.9844 42.6742Z" fill="#D01F42"/>
</svg>
