<svg width="15" height="13" viewBox="0 0 15 13" fill="none" xmlns="http://www.w3.org/2000/svg">
<path d="M1.32504 2.375L4.89996 1L8.47487 2.375L6.84991 3.40625V4.4375C6.84991 4.4375 6.41637 4.09375 4.89996 4.09375C3.38354 4.09375 2.95 4.4375 2.95 4.4375V3.40625L1.32504 2.375ZM1.32504 2.375V5.125" stroke="black" stroke-linecap="round" stroke-linejoin="round"/>
<path d="M6.84986 4.09375V4.70494C6.84986 5.88606 5.97693 6.84375 4.8999 6.84375C3.82288 6.84375 2.94995 5.88606 2.94995 4.70494V4.09375M9.65649 5.83313C9.65649 5.83313 9.97173 5.59044 11.0748 5.59044C12.1778 5.59044 12.493 5.83244 12.493 5.83244M9.65649 5.83313V5.125L8.47482 4.4375L11.0748 3.40625L13.6747 4.4375L12.493 5.125V5.83244M9.65649 5.83313V6.03113C9.65649 6.42898 9.80591 6.81055 10.0719 7.09187C10.3379 7.3732 10.6986 7.53125 11.0748 7.53125C11.4509 7.53125 11.8116 7.3732 12.0776 7.09187C12.3436 6.81055 12.493 6.42898 12.493 6.03113V5.83244M10.0998 12H12.508C13.0104 12 13.4095 11.7415 13.7683 11.3799C14.5028 10.6401 13.2971 10.0489 12.8375 9.75944C12.4288 9.50429 11.975 9.3405 11.5041 9.27819C11.0333 9.21587 10.5553 9.25635 10.0998 9.39713M2.55021 9.19913C1.93728 9.56144 0.329866 10.3005 1.30874 11.2252C1.78713 11.6769 2.31947 12 2.9896 12H6.81021C7.47969 12 8.01268 11.6769 8.49107 11.2252C9.46994 10.3005 7.86253 9.56144 7.2496 9.19913C5.81183 8.35006 3.98798 8.35006 2.55021 9.19913Z" stroke="black" stroke-width="0.8" stroke-linecap="round" stroke-linejoin="round"/>
</svg>
